<svg xmlns="http://www.w3.org/2000/svg" width="24" height="24" fill="none" viewBox="0 0 24 24" id="message">
  <path fill="#000" d="M9 12C9 12.5523 8.55228 13 8 13 7.44772 13 7 12.5523 7 12 7 11.4477 7.44772 11 8 11 8.55228 11 9 11.4477 9 12zM13 12C13 12.5523 12.5523 13 12 13 11.4477 13 11 12.5523 11 12 11 11.4477 11.4477 11 12 11 12.5523 11 13 11.4477 13 12zM17 12C17 12.5523 16.5523 13 16 13 15.4477 13 15 12.5523 15 12 15 11.4477 15.4477 11 16 11 16.5523 11 17 11.4477 17 12z"></path>
  <path stroke="#000" stroke-linecap="round" stroke-linejoin="round" stroke-width="2" d="M3 12C3 16.4183 7.02944 20 12 20C12.6874 20 13.3568 19.9315 14 19.8018L21 21L19.3196 16.6559C20.3773 15.3444 21 13.7368 21 12C21 7.58172 16.9706 4 12 4C7.02944 4 3 7.58172 3 12Z"></path>
</svg>
