<svg xmlns="http://www.w3.org/2000/svg" enable-background="new 0 0 70 70" viewBox="0 0 70 70" id="notepad">
  <path d="M49.147,42.025l-2.95,3.55v11.99c0,1.43-1.16,2.59-2.59,2.59h-32.56c-1.43,0-2.59-1.16-2.59-2.59v-34.46
		c0-1.43,1.16-2.59,2.59-2.59h32.56c1.43,0,2.59,1.16,2.59,2.59v3.34l5.38-6.43v-7.07c0-2.01-1.63-3.64-3.64-3.64h-2.04v2.23
		c0,2.05-1.67,3.72-3.71,3.72c-2.05,0-3.72-1.67-3.72-3.72v-2.23h-2.44v2.23c0,2.05-1.67,3.72-3.71,3.72
		c-2.05,0-3.72-1.67-3.72-3.72v-2.23h-2.44v2.23c0,2.05-1.67,3.72-3.71,3.72c-2.05,0-3.72-1.67-3.72-3.72v-2.23h-2.44v2.23
		c0,2.05-1.66,3.72-3.71,3.72s-3.72-1.67-3.72-3.72v-2.23h-2.04c-2.01,0-3.64,1.63-3.64,3.64v49.14c0,2.01,1.63,3.64,3.64,3.64
		h41.12c2.01,0,3.64-1.63,3.64-3.64v-19.77c-0.3,0.11-0.62,0.17-0.95,0.17C50.097,42.485,49.587,42.315,49.147,42.025z"></path>
  <path d="M48.937 39.927l.945.785c.497.413 1.234.345 1.646-.152l9.868-11.793-8.958-7.445L42.57 33.115c-.413.496-.345 1.233.152 1.646l.945.785-6.462 7.787 5.271 4.381L48.937 39.927zM34.221 53.037c.215 0 .429-.092.577-.271l2.072-2.494c.019-.023.024-.05.04-.074 1.399.725 3.16.412 4.209-.85l.398-.48-5.271-4.381-.398.48c-1.048 1.261-1.035 3.05-.066 4.293-.021.02-.047.031-.066.053l-2.072 2.494c-.265.319-.221.792.098 1.056C33.882 52.98 34.052 53.037 34.221 53.037z"></path>
  <path d="M65.726 26.093l-1.231-1.024c-.001-.001-.002-.001-.002-.001l.435-.52c.816-.982.682-2.439-.3-3.255l-5.403-4.49c-.982-.816-2.439-.682-3.255.3l-2.569 3.07 8.958 7.445 1.172-1.401c.002.002.003.004.005.006l1.231 1.024c.316.263.512.633.549 1.042.038.41-.086.81-.35 1.126l-8.885 10.69c-.265.319-.221.792.098 1.056.141.117.311.173.479.173.215 0 .429-.092.577-.271l8.885-10.69c.519-.625.764-1.414.689-2.222S66.35 26.612 65.726 26.093zM13.442 29.375h22.092c.414 0 .75-.336.75-.75s-.336-.75-.75-.75H13.442c-.414 0-.75.336-.75.75S13.028 29.375 13.442 29.375zM13.442 35.045h22.092c.414 0 .75-.336.75-.75s-.336-.75-.75-.75H13.442c-.414 0-.75.336-.75.75S13.028 35.045 13.442 35.045zM36.284 39.964c0-.414-.336-.75-.75-.75H13.442c-.414 0-.75.336-.75.75s.336.75.75.75h22.092C35.948 40.714 36.284 40.378 36.284 39.964zM13.442 44.883c-.414 0-.75.336-.75.75s.336.75.75.75h10.657c.414 0 .75-.336.75-.75s-.336-.75-.75-.75H13.442zM22.442 13.754c1.223 0 2.214-.991 2.214-2.214v-5.05c0-1.223-.991-2.214-2.214-2.214s-2.214.991-2.214 2.214v5.05C20.228 12.763 21.219 13.754 22.442 13.754zM32.312 13.754c1.223 0 2.214-.991 2.214-2.214v-5.05c0-1.223-.991-2.214-2.214-2.214-1.223 0-2.214.991-2.214 2.214v5.05C30.098 12.763 31.089 13.754 32.312 13.754zM42.182 13.754c1.223 0 2.214-.991 2.214-2.214v-5.05c0-1.223-.991-2.214-2.214-2.214-1.223 0-2.214.991-2.214 2.214v5.05C39.968 12.763 40.96 13.754 42.182 13.754zM12.577 13.755c1.22 0 2.21-.99 2.21-2.22v-5.05c0-1.213-.996-2.21-2.21-2.21-1.23 0-2.22.99-2.22 2.21v5.05C10.357 12.745 11.327 13.755 12.577 13.755z"></path>
</svg>
